<svg data-ref="appLogo" viewBox="0 0 116 158" version="1.1">
  <defs>
    <linearGradient x1="40%" y1="170%" x2="60%" y2="5%" id="gradient">
      <stop stop-color="#fed666" offset="0%"></stop>
      <stop stop-color="#fd6e22" offset="100%"></stop>
    </linearGradient>
  </defs>
  <path d="M30 98C28 97 27 98 26 100 26 100 23 108 19 121 15 134 12 140 12 140 12 140 15 135 24 124 27 122 29 119 32 117 31 120 30 124 29 127 24 140 17 154 17 154 17 154 25 141 34 130 37 127 39 125 42 122 41 126 40 129 39 133 34 146 32 151 32 151 32 151 34 147 44 136 53 125 59 119 59 119 60 117 60 116 59 115L30 98 30 98ZM98 27C96 31 97 34 101 36 105 38 109 39 112 41L113 41C112 41 112 42 112 42 110 47 108 53 105 58 103 61 100 64 96 61 91 59 92 52 86 49 81 46 76 49 73 53 71 58 71 64 76 68 82 71 87 68 90 70 92 71 93 73 93 74 94 77 93 79 92 81 90 85 87 88 84 92 83 92 83 93 82 94L68 113C67 114 66 114 65 114L27 92C26 92 26 90 26 89 26 89 36 64 36 64 39 61 42 57 44 53 45 51 46 49 45 47 45 45 44 43 42 42 39 40 34 43 28 40 23 37 23 31 25 26 28 21 33 18 38 21 44 25 43 31 48 34 52 36 55 33 57 30 60 25 62 19 65 13 65 13 68 15 68 16 71 18 75 21 79 23 81 25 83 25 85 25 87 24 89 24 90 22 92 19 89 14 92 8 95 2 101 2 106 5 111 8 113 13 110 18 107 24 101 22 98 27L98 27ZM21 88C22 88 22 88 22 88 24 81 27 75 29 69 29 69 29 68 29 68 29 68 28 67 28 67L9 67C9 67 8 67 8 68L3 77C3 77 3 78 3 78L20 88C21 88 21 88 21 88L21 88ZM95 116L85 100C85 100 84 100 84 100 84 100 83 100 83 100 79 105 75 110 71 116 70 116 70 116 70 117 70 117 71 117 71 117L88 127C88 127 89 127 89 127L95 118C95 117 95 117 95 116L95 116Z" fill="url(#gradient)"></path>
</svg>
