<svg viewBox="0 0 115 171" version="1.1">
  <defs>
    <linearGradient x1="50%" y1="142%" x2="87%" y2="8%" id="gradient">
      <stop stop-color="#fed666" offset="0%"></stop>
      <stop stop-color="#fec258" offset="20%"></stop>
      <stop stop-color="#fd6e22" offset="100%"></stop>
    </linearGradient>
  </defs>
  <path d="M34.3 104.3C34.1 104.2 33.8 104.3 33.5 104.5 33.4 104.6 30.4 106.7 26 111.4 22 115.8 16 123.1 10.2 133.6 9.9 134 9.9 134.5 10 134.8 10.1 135.1 10.4 135.3 10.7 135.1L15.9 133.3C13.3 136.5 9.3 142.1 6.3 149 6.1 149.4 6.1 149.9 6.2 150.2 6.4 150.4 6.7 150.5 7.1 150.3L13.4 146.7C12.8 147.8 12 149.2 11.3 150.7 8.7 156.4 7.8 161.9 8.5 166.5 8.5 166.7 8.6 166.8 8.8 166.9 8.9 167 9.1 167 9.3 166.9 13.7 165.3 17.9 161.7 21.5 156.6 22.5 155.2 23.3 153.9 24 152.8L24.1 160.1C24.1 160.5 24.3 160.8 24.6 160.8 24.9 160.8 25.3 160.5 25.6 160.1 30 154 32.8 147.8 34.3 144L35.4 149.4C35.4 149.7 35.7 149.9 36 149.8 36.4 149.8 36.7 149.5 37 149.1 43.2 138.8 46.5 129.9 48.2 124.3 50.1 118.1 50.5 114.4 50.5 114.3 50.5 113.9 50.4 113.6 50.2 113.5L34.3 104.3ZM26.9 72.4C27.1 72.1 27 71.6 26.8 71.2 26.5 70.9 26.1 70.6 25.6 70.6L7 70.3C6.5 70.3 6.1 70.5 5.9 70.9L0.6 80C0.3 80.6 0.6 81.4 1.2 81.7L18 91.4C18.3 91.6 18.7 91.6 19 91.5 19.4 91.4 19.7 91.2 19.8 90.8 22 84.4 24.4 78.2 26.9 72.4ZM81.8 103C81.3 103 80.9 103.1 80.7 103.5 77 108.6 72.8 113.8 68.3 118.9 68.1 119.1 68 119.5 68.1 119.8 68.2 120.2 68.4 120.5 68.7 120.7L85.5 130.4C86.1 130.8 86.9 130.6 87.2 130L92.5 120.9C92.7 120.5 92.7 120.1 92.5 119.7L82.9 103.7C82.6 103.3 82.2 103 81.8 103ZM110.2 44L110.5 44.1C110.2 44.7 109.9 45.2 109.7 45.8 107.4 50.8 105.4 56.1 102.6 61.1 100.7 64.3 97.4 67.1 93.5 64.8 88.4 61.9 89.8 55.8 84.1 52.5 79 49.5 73.9 52 71.1 56.7 68.3 61.7 68.4 67.7 73.8 70.9 79.8 74.3 84.9 71.3 88.2 73.2 89.8 74.1 90.7 76 91.1 77.7 91.6 80 90.7 82.2 89.6 84.2 87.4 88 84.6 91.6 81.8 95 81.2 95.8 80.6 96.6 80 97.4L65.3 116.5C64.7 117.4 63.4 117.6 62.4 117.1L25 95.5C24 94.9 23.6 93.6 24 92.6 24 92.6 33.5 67.7 33.8 67.3 36.7 63.9 39.4 60.3 41.6 56.5 42.8 54.5 43.7 52.3 43.1 50 42.7 48.3 41.9 46.4 40.2 45.5 37 43.6 31.8 46.6 25.8 43.2 20.5 40.1 20.3 34 23.2 29 26 24.2 31.1 21.7 36.2 24.7 41.9 28 40.4 34 45.6 37 49.4 39.2 52.8 36.6 54.7 33.3 57.8 27.9 59.6 21.8 62.5 16.3 62.6 16.6 65.3 18.5 65.7 19 69.2 21.8 72.7 24.5 76.5 26.7 78.5 27.8 80.6 28.7 82.9 28.2 84.6 27.8 86.5 26.9 87.4 25.3 89.3 22.1 86.3 16.9 89.7 10.9 92.8 5.5 98.9 5.4 103.9 8.2 108.7 11.1 111.1 16.2 108.2 21.3 104.9 27.1 98.9 25.5 95.9 30.7 93.7 34.4 95.2 37.2 98.7 39.3 102.3 41.4 106.7 41.9 110.2 44Z" id="rocket" fill="url(#gradient)"></path>
</svg>
